<svg xmlns="http://www.w3.org/2000/svg" version="1.1" xmlns:xlink="http://www.w3.org/1999/xlink" xmlns:svgjs="http://svgjs.dev/svgjs" width="2000" height="2266" viewBox="0 0 2000 2266"><g transform="matrix(1,0,0,1,0.38253314746975775,0.9174089068824287)"><svg viewBox="0 0 218 247" data-background-color="#ffffff" preserveAspectRatio="xMidYMid meet" height="2266" width="2000" xmlns="http://www.w3.org/2000/svg" xmlns:xlink="http://www.w3.org/1999/xlink"><g id="tight-bounds" transform="matrix(1,0,0,1,-0.041696113074209507,-0.09999999999999432)"><svg viewBox="0 0 218.08339222614842 247.2" height="247.2" width="218.08339222614842"><g><svg viewBox="0 0 218.08339222614842 247.2" height="247.2" width="218.08339222614842"><g><svg viewBox="0 0 218.08339222614842 247.2" height="247.2" width="218.08339222614842"><g id="textblocktransform"><svg viewBox="0 0 218.08339222614842 247.2" height="247.2" width="218.08339222614842" id="textblock"><g><svg viewBox="0 0 218.08339222614842 247.2" height="247.2" width="218.08339222614842"><g transform="matrix(1,0,0,1,0,0)"><svg width="218.08339222614842" viewBox="0.2 -36.5 37.449999999999996 42.45" height="247.2" data-palette-color="#d3a645"><path d="M19.75 5.95L19.75 5.95 11.65 5.95Q10.45 5.95 9.9 5.4 9.35 4.85 9.35 3.65L9.35 3.65 9.35-20.4 2.5-20.4Q1.3-20.4 0.75-20.95 0.2-21.5 0.2-22.7L0.2-22.7 0.2-28.75Q0.2-29.4 0.38-29.85 0.55-30.3 0.9-30.6L0.9-30.6 7.35-36.05Q7.6-36.25 8.03-36.38 8.45-36.5 8.95-36.5L8.95-36.5 35.35-36.5Q36.55-36.5 37.1-35.95 37.65-35.4 37.65-34.2L37.65-34.2 37.65-28.15Q37.65-27.5 37.48-27.05 37.3-26.6 36.95-26.3L36.95-26.3 30.45-20.9Q30.25-20.7 29.83-20.55 29.4-20.4 28.9-20.4L28.9-20.4 28.5-20.4 28.5-1.8Q28.5-1.15 28.33-0.7 28.15-0.25 27.8 0.05L27.8 0.05 21.3 5.45Q21.1 5.65 20.68 5.8 20.25 5.95 19.75 5.95ZM18.1 0L26.2 0Q27.15 0 27.58-0.43 28-0.85 28-1.8L28-1.8 28-26.35 35.35-26.35Q36.3-26.35 36.73-26.78 37.15-27.2 37.15-28.15L37.15-28.15 37.15-34.2Q37.15-35.15 36.73-35.58 36.3-36 35.35-36L35.35-36 8.95-36Q8-36 7.58-35.58 7.15-35.15 7.15-34.2L7.15-34.2 7.15-28.15Q7.15-27.2 7.58-26.78 8-26.35 8.95-26.35L8.95-26.35 16.3-26.35 16.3-1.8Q16.3-0.85 16.73-0.43 17.15 0 18.1 0L18.1 0ZM22.4-4.5L21.9-4.5 21.9-31 11.65-31 11.65-31.5 32.65-31.5 32.65-31 22.4-31 22.4-4.5Z" opacity="1" transform="matrix(1,0,0,1,0,0)" fill="#d3a645" class="wordmark-text-0" data-fill-palette-color="primary" id="text-0"></path></svg></g></svg></g></svg></g></svg></g><g></g></svg></g><defs></defs></svg><rect width="218.08339222614842" height="247.2" fill="none" stroke="none" visibility="hidden"></rect></g></svg></g></svg>